HIERARCHY
ROOT Hips
{
    OFFSET 0.000000 0.000000 0.000000
    CHANNELS 6 Xposition Yposition Zposition Zrotation Xrotation Yrotation
    JOINT Spine
    {
        OFFSET -0.000000 14.517291 0.000000
        CHANNELS 3 Zrotation Xrotation Yrotation
        JOINT Spine1
        {
            OFFSET -0.000000 37.558300 0.000000
            CHANNELS 3 Zrotation Xrotation Yrotation
            JOINT Neck
            {
                OFFSET -0.000000 37.404057 3.400369
                CHANNELS 3 Zrotation Xrotation Yrotation
                JOINT Head
                {
                    OFFSET -0.000000 24.785618 -3.540803
                    CHANNELS 3 Zrotation Xrotation Yrotation
                    End Site
                    {
                        OFFSET -0.000000 35.408028 0.000000
                    }
                }
            }
            JOINT LeftShoulder
            {
                OFFSET 6.992933 33.973492 -0.192664
                CHANNELS 3 Zrotation Xrotation Yrotation
                JOINT LeftArm
                {
                    OFFSET 21.527611 0.000000 0.000000
                    CHANNELS 3 Zrotation Xrotation Yrotation
                    JOINT LeftForeArm
                    {
                        OFFSET 56.353916 0.000000 0.000000
                        CHANNELS 3 Zrotation Xrotation Yrotation
                        JOINT LeftHand
                        {
                            OFFSET 47.774071 0.000000 0.000000
                            CHANNELS 3 Zrotation Xrotation Yrotation
                            End Site
                            {
                                OFFSET 26.556021 0.000000 0.000000
                            }
                        }
                    }
                }
            }
            JOINT RightShoulder
            {
                OFFSET -7.065357 33.973492 -0.192664
                CHANNELS 3 Zrotation Xrotation Yrotation
                JOINT RightArm
                {
                    OFFSET -21.527611 0.000000 0.000000
                    CHANNELS 3 Zrotation Xrotation Yrotation
                    JOINT RightForeArm
                    {
                        OFFSET -56.353916 0.000000 0.000000
                        CHANNELS 3 Zrotation Xrotation Yrotation
                        JOINT RightHand
                        {
                            OFFSET -47.774071 0.000000 0.000000
                            CHANNELS 3 Zrotation Xrotation Yrotation
                            End Site
                            {
                                OFFSET -26.556021 0.000000 0.000000
                            }
                        }
                    }
                }
            }
        }
    }
    JOINT LeftUpLeg
    {
        OFFSET 17.704014 0.000000 0.000000
        CHANNELS 3 Zrotation Xrotation Yrotation
        JOINT LeftLeg
        {
            OFFSET -0.000000 -81.181816 0.000000
            CHANNELS 3 Zrotation Xrotation Yrotation
            JOINT LeftFoot
            {
                OFFSET -0.000000 -62.821102 0.000000
                CHANNELS 3 Zrotation Xrotation Yrotation
                JOINT LeftToeBase
                {
                    OFFSET -0.000000 -11.507608 26.556021
                    CHANNELS 3 Zrotation Xrotation Yrotation
                    End Site
                    {
                        OFFSET -0.000000 0.000000 7.081605
                    }
                }
            }
        }
    }
    JOINT RightUpLeg
    {
        OFFSET -17.704014 0.000000 0.000000
        CHANNELS 3 Zrotation Xrotation Yrotation
        JOINT RightLeg
        {
            OFFSET -0.000000 -81.181816 0.000000
            CHANNELS 3 Zrotation Xrotation Yrotation
            JOINT RightFoot
            {
                OFFSET -0.000000 -62.821102 0.000000
                CHANNELS 3 Zrotation Xrotation Yrotation
                JOINT RightToeBase
                {
                    OFFSET -0.000000 -11.507608 26.556021
                    CHANNELS 3 Zrotation Xrotation Yrotation
                    End Site
                    {
                        OFFSET -0.000000 0.000000 7.081605
                    }
                }
            }
        }
    }
}
MOTION
Frames:    4
Frame Time:    0.008333
-2.018274    152.722733    -25.642437    -4.401598    -1.387543    -9.547173    4.200140    1.282266    13.372536    -1.985327    0.104585    4.474850    6.886870    -3.161505    -4.837794    3.798049    7.375837    -5.957970    2.816649    2.537396    -6.356392    -46.486763    14.133138    -35.811790    -5.786211    -18.580097    -126.270195    -0.900343    -29.038805    -1.882161    -15.132980    -1.469450    6.678812    30.123728    -20.805687    75.068924    3.775198    -16.669899    15.348830    11.909405    -12.594112    43.095360    13.101170    -31.139032    -26.175110    -9.193137    26.990032    -27.175896    -4.674430    -10.043814    32.777470    0.000000    0.000000    0.000000    1.043465    5.671371    -20.642023    3.522429    33.886295    -8.483899    5.498241    -29.306923    -11.506588    0.000000    0.000000    0.000000    
-2.039357    152.754822    -25.666899    -4.355264    -1.373548    -9.363642    4.173745    1.258509    13.313803    -2.023098    0.117589    4.455153    6.903983    -3.150708    -4.858876    3.797985    7.337361    -5.981031    2.834748    2.541974    -6.363655    -46.476330    14.144801    -35.805866    -5.783439    -18.601500    -126.274078    -0.906828    -29.053930    -1.924668    -15.118125    -1.471961    6.667427    30.099653    -20.796398    75.026627    3.759672    -16.717987    15.299152    11.949341    -12.625654    43.080044    13.208023    -31.153206    -25.590065    -9.255655    26.842804    -26.862179    -4.645079    -9.959332    32.995258    0.000000    0.000000    0.000000    1.058254    5.661719    -20.667698    3.565425    33.842640    -8.581749    5.480464    -29.275473    -11.598486    0.000000    0.000000    0.000000    
-2.061572    152.784912    -25.694805    -4.317232    -1.351561    -9.186878    4.151927    1.239141    13.263545    -2.050537    0.120652    4.438158    6.907292    -3.146711    -4.885607    3.803659    7.310538    -6.007872    2.836716    2.554790    -6.379303    -46.474319    14.123319    -35.831062    -5.784105    -18.604315    -126.267380    -0.912271    -29.056278    -1.921004    -15.110522    -1.465424    6.643309    30.075243    -20.792692    74.996948    3.758155    -16.771212    15.256641    11.961390    -12.675228    43.066399    13.327862    -31.197653    -25.009491    -9.366423    26.742952    -26.626390    -4.565380    -9.897445    33.443253    0.000000    0.000000    0.000000    1.085397    5.644195    -20.699703    3.592721    33.789333    -8.683986    5.462687    -29.232645    -11.671333    0.000000    0.000000    0.000000    
-2.083354    152.818680    -25.722023    -4.285716    -1.317728    -9.015018    4.143653    1.211413    13.217745    -2.085703    0.125305    4.422641    6.907047    -3.169280    -4.911883    3.811185    7.321702    -6.036380    2.850419    2.561604    -6.399279    -46.490250    14.079147    -35.847481    -5.804827    -18.557217    -126.266167    -0.879152    -29.049267    -1.923679    -15.103939    -1.464749    6.619512    30.056387    -20.780006    74.962654    3.745319    -16.806858    15.222861    11.958847    -12.713608    43.033905    13.461806    -31.241533    -24.382463    -9.445201    26.623295    -26.325182    -4.481844    -9.785685    33.784256    0.000000    0.000000    0.000000    1.122283    5.610645    -20.746767    3.598772    33.747707    -8.751693    5.473735    -29.184763    -11.747781    0.000000    0.000000    0.000000    
